name C:\Users\r0593348\3dpredictsim\Results\MidTarsalJoint\Fal_s1_bCst_PF_Natali2010_ls150_MT_k50_MTP_T5_ig21.mot
datacolumns 128
datarows 4
range 1.78400571 1.81968582
endheader
time	pelvis_tilt	pelvis_list	pelvis_rotation	pelvis_tx	pelvis_ty	pelvis_tz	hip_flexion_l	hip_adduction_l	hip_rotation_l	hip_flexion_r	hip_adduction_r	hip_rotation_r	knee_angle_l	knee_angle_r	ankle_angle_l	ankle_angle_r	subtalar_angle_l	subtalar_angle_r	mtj_angle_l	mtj_angle_r	mtp_angle_l	mtp_angle_r	lumbar_extension	lumbar_bending	lumbar_rotation	arm_flex_l	arm_add_l	arm_rot_l	arm_flex_r	arm_add_r	arm_rot_r	elbow_flex_l	elbow_flex_r	pro_sup_l	pro_sup_r	glut_med1_l/activation	glut_med2_l/activation	glut_med3_l/activation	glut_min1_l/activation	glut_min2_l/activation	glut_min3_l/activation	semimem_l/activation	semiten_l/activation	bifemlh_l/activation	bifemsh_l/activation	sar_l/activation	add_long_l/activation	add_brev_l/activation	add_mag1_l/activation	add_mag2_l/activation	add_mag3_l/activation	tfl_l/activation	pect_l/activation	grac_l/activation	glut_max1_l/activation	glut_max2_l/activation	glut_max3_l/activation	iliacus_l/activation	psoas_l/activation	quad_fem_l/activation	gem_l/activation	peri_l/activation	rect_fem_l/activation	vas_med_l/activation	vas_int_l/activation	vas_lat_l/activation	med_gas_l/activation	lat_gas_l/activation	soleus_l/activation	tib_post_l/activation	flex_dig_l/activation	flex_hal_l/activation	tib_ant_l/activation	per_brev_l/activation	per_long_l/activation	per_tert_l/activation	ext_dig_l/activation	ext_hal_l/activation	ercspn_l/activation	intobl_l/activation	extobl_l/activation	glut_med1_r/activation	glut_med2_r/activation	glut_med3_r/activation	glut_min1_r/activation	glut_min2_r/activation	glut_min3_r/activation	semimem_r/activation	semiten_r/activation	bifemlh_r/activation	bifemsh_r/activation	sar_r/activation	add_long_r/activation	add_brev_r/activation	add_mag1_r/activation	add_mag2_r/activation	add_mag3_r/activation	tfl_r/activation	pect_r/activation	grac_r/activation	glut_max1_r/activation	glut_max2_r/activation	glut_max3_r/activation	iliacus_r/activation	psoas_r/activation	quad_fem_r/activation	gem_r/activation	peri_r/activation	rect_fem_r/activation	vas_med_r/activation	vas_int_r/activation	vas_lat_r/activation	med_gas_r/activation	lat_gas_r/activation	soleus_r/activation	tib_post_r/activation	flex_dig_r/activation	flex_hal_r/activation	tib_ant_r/activation	per_brev_r/activation	per_long_r/activation	per_tert_r/activation	ext_dig_r/activation	ext_hal_r/activation	ercspn_r/activation	intobl_r/activation	extobl_r/activation	
          1.78400571	         -2.93017651	          2.56408931	         -6.81190806	          2.23000714	          0.91714650	          0.00224533	         28.33731296	          3.76611123	         -1.62650243	        -15.75686384	         -2.22065441	          6.25083793	         -8.49177178	        -12.22607721	          5.19478789	         -6.47762338	         -7.92492054	         12.81994555	         -0.76117100	         11.34176168	          1.74391285	          0.77283162	         -1.56342786	         -0.64929428	          2.72758191	         -8.87110070	        -13.51359278	          4.47769078	          4.99070131	        -13.45509533	         15.88040136	         18.00801307	         41.07806482	         86.51662706	         86.51662706	          0.05000000	          0.05000002	          0.07880814	          0.05000002	          0.05000003	          0.05000004	          0.18632881	          0.09358067	          0.11993424	          0.07208026	          0.05501484	          0.12349488	          0.27421081	          0.28023162	          0.18082270	          0.09985314	          0.05000014	          0.07181398	          0.13408850	          0.05000068	          0.11010061	          0.13597311	          0.05000017	          0.06720872	          0.52399726	          0.21073538	          0.07501680	          0.05991135	          0.05991360	          0.05991380	          0.05991179	          0.06934481	          0.07178681	          0.06274440	          0.05991111	          0.05004339	          0.05991074	          0.44093441	          0.23524129	          0.22833495	          0.11640058	          0.39788887	          0.19773836	          0.05000000	          0.10680229	          0.09186717	          0.17924447	          0.08601356	          0.05554850	          0.18889977	          0.14880799	          0.10294361	          0.05000767	          0.05000056	          0.05000055	          0.05000019	          0.09531927	          0.05991123	          0.05000058	          0.05985531	          0.05005584	          0.05991089	          0.25778773	          0.05000006	          0.05001013	          0.05003444	          0.05003102	          0.05015706	          0.37067072	          0.60409719	          0.05670948	          0.05990114	          0.05002958	          0.30187564	          0.09751324	          0.10648509	          0.13567627	          0.23272191	          0.31663665	          0.34431952	          0.21698250	          0.15044194	          0.21572392	          0.05000007	          0.05740659	          0.19061447	          0.05000016	          0.05000006	          0.05000029	          0.05000006	          0.07178073	          0.07178693	
          1.79589908	         -2.92895194	          2.63979532	         -7.08480805	          2.24843124	          0.91603849	          0.00207894	         27.57003429	          4.04466408	         -1.33714148	        -15.84404802	         -2.55581222	          6.05931356	         -9.13089908	        -13.77782023	          4.57590645	         -6.88888396	         -8.22020363	         13.59957065	         -0.96950482	          9.55923485	          1.80556397	          2.58767216	         -1.32119570	         -0.83206918	          2.79766464	         -9.84371466	        -13.50330039	          4.56670524	          4.62939510	        -13.45589473	         16.18658083	         17.55052999	         42.22899310	         86.51662706	         86.51662706	          0.22940371	          0.21999528	          0.24122542	          0.29643108	          0.21579924	          0.19493687	          0.15550432	          0.07809972	          0.10009347	          0.07351611	          0.05000064	          0.10306507	          0.22884795	          0.23387276	          0.15090919	          0.11313272	          0.05000028	          0.05993399	          0.11190634	          0.05000035	          0.12034174	          0.11347911	          0.05447177	          0.05609040	          0.43731204	          0.17587334	          0.17891122	          0.05000019	          0.05000210	          0.05000226	          0.05000059	          0.05787306	          0.05991109	          0.05236456	          0.05000004	          0.05000018	          0.05000019	          0.50882942	          0.34585528	          0.19056143	          0.34494768	          0.50103113	          0.20897209	          0.05112010	          0.13436255	          0.07666952	          0.28971272	          0.07178692	          0.06560450	          0.30624782	          0.12419080	          0.08591396	          0.05000051	          0.05000008	          0.05000007	          0.05000018	          0.08601892	          0.05000031	          0.05000028	          0.05000020	          0.05000039	          0.05000025	          0.25110833	          0.05004560	          0.05000038	          0.05000266	          0.05000061	          0.05000037	          0.30935872	          0.59272471	          0.05000024	          0.05000032	          0.05024701	          0.25457083	          0.10833466	          0.08886995	          0.11323194	          0.19422257	          0.26425525	          0.28735860	          0.18108716	          0.12555435	          0.18003668	          0.05000001	          0.11810711	          0.19876515	          0.05000013	          0.05000005	          0.05000010	          0.05000008	          0.05990599	          0.05991117	
          1.80779245	         -2.92582142	          2.71333144	         -7.31172752	          2.26696589	          0.91503156	          0.00188592	         26.80240996	          4.29112056	         -1.05436794	        -15.86710906	         -2.88247344	          5.88784598	         -9.74457171	        -15.39209546	          3.86372921	         -7.35167829	         -8.50399043	         14.30728364	         -0.89056804	          7.38354134	          1.86347719	          4.92837029	         -1.08388213	         -1.02362077	          2.85708429	        -10.78131816	        -13.49485354	          4.71459303	          4.21984208	        -13.45959522	         16.43795791	         17.10892200	         43.30844008	         86.51662706	         86.51662706	          0.32546382	          0.33195771	          0.35885435	          0.24739245	          0.21171989	          0.23120237	          0.12977915	          0.06517985	          0.08353499	          0.06135435	          0.05000056	          0.08601496	          0.19098950	          0.19518311	          0.12594434	          0.14196646	          0.05000028	          0.05001924	          0.09339371	          0.20883145	          0.17977671	          0.13720010	          0.05000004	          0.05000004	          0.36496723	          0.14677854	          0.14931405	          0.05000006	          0.08111758	          0.08712278	          0.06720169	          0.05000001	          0.05000004	          0.05000000	          0.05000011	          0.05000017	          0.05000017	          0.59073281	          0.34555884	          0.20328546	          0.45946851	          0.53049657	          0.31496893	          0.07248091	          0.11213487	          0.06398603	          0.25602324	          0.05991129	          0.05958713	          0.25558535	          0.10364590	          0.07170125	          0.05000083	          0.05000011	          0.05000010	          0.05000017	          0.07178891	          0.05000029	          0.05000015	          0.05000019	          0.05000033	          0.05000023	          0.20956739	          0.05001423	          0.05000065	          0.05000825	          0.05000124	          0.05000047	          0.25818133	          0.55882032	          0.05000046	          0.05000699	          0.05000047	          0.21245701	          0.12349728	          0.12349732	          0.12349732	          0.16209219	          0.22053933	          0.23982067	          0.15112981	          0.10478387	          0.15025314	          0.06108646	          0.09856874	          0.20074164	          0.05000023	          0.09569687	          0.05000033	          0.06504970	          0.05000000	          0.05000004	
          1.81968582	         -2.92118831	          2.78233771	         -7.49393599	          2.28544275	          0.91425915	          0.00166055	         26.10284582	          4.55040303	         -0.78338289	        -15.79389316	         -3.19081189	          5.73472863	        -10.46231526	        -17.08396397	          3.15643048	         -7.93581423	         -8.78954522	         14.92762263	         -0.93105461	          4.87955086	          1.89292781	          7.65370806	         -0.86187741	         -1.22371037	          2.90752476	        -11.65211850	        -13.48410282	          4.89348585	          3.80251720	        -13.46366511	         16.67564863	         16.67416010	         44.26254499	         86.51662706	         86.51662706	          0.39818372	          0.38540105	          0.40150606	          0.22809912	          0.17671650	          0.22291565	          0.10830972	          0.07270200	          0.07189881	          0.05120457	          0.05000020	          0.07178552	          0.15939415	          0.16643994	          0.18124797	          0.16847511	          0.05000020	          0.05002918	          0.09420097	          0.24378002	          0.21055491	          0.17446007	          0.05000008	          0.05000007	          0.30459047	          0.12249692	          0.15162863	          0.05000004	          0.14443937	          0.15181782	          0.11842767	          0.05000001	          0.05000004	          0.05000000	          0.05000001	          0.05000010	          0.05000008	          0.62933024	          0.28839285	          0.16965583	          0.48780443	          0.55253063	          0.33745606	          0.08356830	          0.09358432	          0.05340079	          0.27655339	          0.05000019	          0.05000004	          0.21330387	          0.08649973	          0.05983973	          0.05000069	          0.05000008	          0.05000009	          0.05000005	          0.05991290	          0.06003626	          0.08579095	          0.05021881	          0.05006171	          0.10534078	          0.17489856	          0.05008705	          0.05000026	          0.05000109	          0.05000083	          0.05000077	          0.21547022	          0.49189155	          0.05000009	          0.05000029	          0.05000008	          0.17731011	          0.10306720	          0.10306721	          0.10306717	          0.13527717	          0.18405536	          0.20014697	          0.12612832	          0.08744945	          0.12539670	          0.11649403	          0.14791817	          0.16753367	          0.05077065	          0.15549742	          0.05001449	          0.08627741	          0.05000001	          0.05000001	
